<svg id="shopping-bag" xmlns="http://www.w3.org/2000/svg" width="16" height="18.618" viewBox="0 0 16 18.618">
  <g id="Group_3" data-name="Group 3">
    <path id="Path_1" data-name="Path 1" d="M50.982,5.08a.145.145,0,0,0-.145-.134H48.219V4.218a4.218,4.218,0,1,0-8.436,0v.727H37.164a.145.145,0,0,0-.145.134L36,18.462a.146.146,0,0,0,.145.157H51.855A.145.145,0,0,0,52,18.462ZM40.946,4.218a3.055,3.055,0,0,1,6.109,0v.727H40.946Zm-.582,4.8A1.456,1.456,0,0,1,38.91,7.564a1.373,1.373,0,0,1,.873-1.333V7.564a.582.582,0,1,0,1.164,0V6.231a1.377,1.377,0,0,1,.873,1.332A1.456,1.456,0,0,1,40.364,9.018Zm7.273,0a1.456,1.456,0,0,1-1.455-1.455,1.373,1.373,0,0,1,.873-1.333V7.564a.582.582,0,1,0,1.164,0V6.231a1.377,1.377,0,0,1,.873,1.332A1.456,1.456,0,0,1,47.637,9.018Z" transform="translate(-36.001)" fill="#fff"/>
  </g>
</svg>
