<svg xmlns="http://www.w3.org/2000/svg" width="16" height="18" viewBox="0 0 16 18">
  <path id="Path_4" data-name="Path 4" d="M15.3,20.7c-.722-.5-1.527.46-2,1.026-1.083,1.344-2,2.9-3.027,4.315-1.139,1.556-2.194,3.112-3.36,4.633a12.6,12.6,0,0,0-1.833,2.829,42.524,42.524,0,0,0-2.971-3.678c-.805-.778-2.138-1.344-2.11.53.056,2.44,1.749,5.057,3,6.719a3.106,3.106,0,0,0,2.027,1.485C6,38.634,7,37.149,7.582,36.336c1.028-1.415,1.861-3.006,2.8-4.456,1.222-1.91,2.471-3.784,3.666-5.729C14.8,24.948,17.162,21.977,15.3,20.7ZM1.223,30.217a.174.174,0,0,0-.111.035,1.18,1.18,0,0,1-.305-.141h0Q.931,30.005,1.223,30.217Z" transform="translate(-0.001 -20.566)" fill="#fea35a"/>
</svg>
